inDegrees=yes
name=ik_S46_A13_T01
DataType=double
version=3
OpenSimVersion=4.3-2021-08-27-4bc7ad9
endheader
time	pelvis_tilt	pelvis_list	pelvis_rotation	pelvis_tx	pelvis_ty	pelvis_tz	hip_flexion_r	hip_adduction_r	hip_rotation_r	knee_angle_r	knee_angle_r_beta	ankle_angle_r	subtalar_angle_r	mtp_angle_r	hip_flexion_l	hip_adduction_l	hip_rotation_l	knee_angle_l	knee_angle_l_beta	ankle_angle_l	subtalar_angle_l	mtp_angle_l	lumbar_extension	lumbar_bending	lumbar_rotation	arm_flex_r	arm_add_r	arm_rot_r	elbow_flex_r	pro_sup_r	wrist_flex_r	wrist_dev_r	arm_flex_l	arm_add_l	arm_rot_l	elbow_flex_l	pro_sup_l	wrist_flex_l	wrist_dev_l
8.139999999999915	2.769526708630087	2.271811041658284	28.76663698960276	0	0.9399999999999999	0	31.3878766434913	-9.46076937730327	-8.760139053596182	36.67154140300219	0.640039139263809	0	0	0	31.3878766434913	-9.46076937730327	-8.760139053596182	36.67154140300219	0.640039139263809	0	0	0	4.531404008362559	1.422287211246425	4.346610465961022	97.32151205624874	-59.29204986933667	18.05629687382692	96.56883156591414	60.02448935251288	0	0	-4.711443875846618	-3.50870848532826	-22.77697171219254	-4.921122062365539	123.6762990245945	0	0
8.159999999999915	2.683725228672518	2.398332460436509	29.85731826501275	0	0.9399999999999999	0	31.60017513735692	-9.481324089382106	-8.794542169735774	36.92491279477436	0.6444613042805939	0	0	0	31.60017513735692	-9.481324089382106	-8.794542169735774	36.92491279477436	0.6444613042805939	0	0	0	4.519658594017889	1.503711632404622	3.526908658392634	98.10540985167621	-58.52631394088363	19.23921980111385	96.2431251670653	60.32706926287935	0	0	-6.848178107593804	-1.182849971156826	-23.14269091705807	-2.768972579475154	113.1936711626425	0	0
8.179999999999914	2.676288866019634	2.50336765471083	30.25028355915958	0	0.9399999999999999	0	31.67158642301296	-9.488272331941998	-8.806130387587306	37.0103456852714	0.645952389509263	0	0	0	31.67158642301296	-9.488272331941998	-8.806130387587306	37.0103456852714	0.645952389509263	0	0	0	4.562726943209421	1.590804966425705	3.416886591872228	98.18211232910272	-57.76111803800511	19.84414777174768	96.5001159361998	61.18880465423534	0	0	-6.310977035172279	-1.342834981753329	-25.54353159982773	-4.664659403471178	108.1016184548873	0	0
8.199999999999914	2.731731926172103	2.521237665059132	30.6937386158804	0	0.9399999999999999	0	31.70122708469225	-9.491553324806604	-8.811334414818738	37.04267386802817	0.6465166227395551	0	0	0	31.70122708469225	-9.491553324806604	-8.811334414818738	37.04267386802817	0.6465166227395551	0	0	0	4.605088337445277	1.611475669974147	3.742066043294008	98.0409805138646	-57.52041352873145	20.11432764548436	96.96092418210212	61.68964020637581	0	0	-5.675507493087326	-1.759194520464943	-26.08828856841445	-5.713806784020665	108.0271693597008	0	0
8.219999999999914	2.868984250494986	2.530076986658345	31.43429472601207	0	0.9399999999999999	0	31.70851521604241	-9.492499059403162	-8.812751881821811	37.0495610862064	0.6466368273730683	0	0	0	31.70851521604241	-9.492499059403162	-8.812751881821811	37.0495610862064	0.6466368273730683	0	0	0	4.714428828153442	1.583099829741297	4.077778970335036	97.68115393058414	-57.51583237259941	20.45135127847787	97.44421334005993	61.94839532613383	0	0	-5.832746837104168	-1.864615542938271	-25.00799526049439	-5.60800205845174	106.7722185561262	0	0
8.239999999999913	2.873415789898752	2.423406211920208	32.14750437541031	0	0.9399999999999999	0	31.7132612670806	-9.493113101670049	-8.813673336860143	37.0540545086406	0.646715252389228	0	0	0	31.7132612670806	-9.493113101670049	-8.813673336860143	37.0540545086406	0.646715252389228	0	0	0	4.65124629865984	1.521733314357788	4.384089857984587	97.56567769399301	-57.34923436112049	20.79463047306174	97.91515619932208	62.18571562213085	0	0	-5.259820226364701	-1.936683123393578	-24.0658662048722	-5.890734113769712	107.0953576034826	0	0
8.259999999999913	2.791003876783498	2.168777729512118	32.94806055059046	0	0.9399999999999999	0	31.72051436071322	-9.494051476148885	-8.815081775072764	37.0609154861403	0.6468349990365031	0	0	0	31.72051436071322	-9.494051476148885	-8.815081775072764	37.0609154861403	0.6468349990365031	0	0	0	4.435137817635827	1.383681820290237	4.709755616553925	97.66837207791461	-57.04849245136248	21.12701700644781	98.33011889288562	62.72982062862717	0	0	-4.763154576222953	-2.307977394869487	-22.96552261858079	-6.185735404995524	108.3452743322293	0	0
8.279999999999912	2.81114714749273	2.064213817851219	33.01631533242065	0	0.9399999999999999	0	31.72720580095121	-9.494911986253573	-8.816376407905883	37.06727311263626	0.6469459605514698	0	0	0	31.72720580095121	-9.494911986253573	-8.816376407905883	37.06727311263626	0.6469459605514698	0	0	0	4.382666289621252	1.324464317951448	5.124074900573182	97.58750009135626	-57.57327833580062	20.95817300324189	98.19781502945514	62.10469205670913	0	0	-4.355485806929739	-1.669462225972772	-21.01969620800601	-6.320538961260282	106.7361133480105	0	0
8.299999999999912	2.89959385440902	1.732474578579177	34.1873450686022	0	0.9399999999999999	0	31.74357636690443	-9.497017604744794	-8.819546038157222	37.08277788428202	0.6472165698664581	0	0	0	31.74357636690443	-9.497017604744794	-8.819546038157222	37.08277788428202	0.6472165698664581	0	0	0	4.25417205567827	1.044269731511622	5.619391904919588	97.49434005044596	-57.72933084074287	21.23883341676746	97.65634730708324	62.25787045240808	0	0	-3.878968742394907	-2.026635771590355	-18.21075985302254	-6.241667772595803	106.6378130139888	0	0
8.319999999999911	2.83366667039877	1.461335200164987	35.01200507787792	0	0.9399999999999999	0	31.76732855537013	-9.500069508538473	-8.824144071658276	37.10524153203583	0.6476086344817703	0	0	0	31.76732855537013	-9.500069508538473	-8.824144071658276	37.10524153203583	0.6476086344817703	0	0	0	4.050566947788502	0.8445635589210131	5.466186653546263	97.52092847863632	-54.18828855601839	22.45919561300207	97.52208334787186	65.30884958352959	0	0	-3.217846838874709	-2.284112259596125	-17.06432152615059	-6.168744509955826	107.2079655048326	0	0
8.339999999999911	2.813287126718536	1.330155446563785	35.61757562465225	0	0.9399999999999999	0	31.78715357626661	-9.502611383320474	-8.827978335999674	37.12398660465876	0.6479357977175658	0	0	0	31.78715357626661	-9.502611383320474	-8.827978335999674	37.12398660465876	0.6479357977175658	0	0	0	3.98478531477459	0.7000101463471148	5.177764058703051	99.19006725175507	-52.88330149025331	24.8779155054245	91.03494723205961	59.0627013984038	0	0	-2.752341033080405	-2.450439569472564	-16.83416135694229	-6.255107456640435	108.0841056758701	0	0
8.359999999999911	2.825546452911227	1.065087034386701	36.1864058697648	0	0.9399999999999999	0	31.85538227343244	-9.509290224391137	-8.839137156022362	37.20322023791926	0.6493186854962792	0	0	0	31.85538227343244	-9.509290224391137	-8.839137156022362	37.20322023791926	0.6493186854962792	0	0	0	3.835435679567679	0.4775065749167169	5.236126868335762	100.6114879524442	-51.06678040202905	27.07203335163652	85.74635224343126	55.97474592541593	0	0	-1.869738664931732	-3.025104989395092	-17.05605406980477	-6.630111683115223	109.11609062836	0	0
8.37999999999991	2.781299635230944	0.7818373925842717	36.76130990624856	0	0.9399999999999999	0	31.9372249920871	-9.51687196834447	-8.852110089026963	37.30066655994064	0.6510194446595109	0	0	0	31.9372249920871	-9.51687196834447	-8.852110089026963	37.30066655994064	0.6510194446595109	0	0	0	3.628401681558542	0.2709660008644634	5.161172015202752	101.6646355315053	-48.30137516378223	29.28423112189554	82.18997360280753	55.85609240044544	0	0	-1.23435009301579	-3.547969220625207	-16.93888646582602	-6.619301125682609	109.4003326702465	0	0
